<svg width="32" height="32" viewBox="0 0 32 32" fill="none" xmlns="http://www.w3.org/2000/svg">
<g clip-path="url(#clip0_208_3)">
<rect width="32" height="32" rx="16" fill="#FF4545"/>
<path d="M14.6069 21.7907L15.4899 19.7789C16.2624 18.0009 17.676 16.5754 19.4521 15.7832L21.8818 14.7102C22.6541 14.3689 22.6541 13.2509 21.8818 12.9086L19.5286 11.8696C17.7067 11.0568 16.2678 9.57889 15.509 7.74084L14.614 5.59687C14.5436 5.42075 14.4217 5.26971 14.2641 5.1633C14.1065 5.05689 13.9204 5 13.73 5C13.5396 5 13.3535 5.05689 13.1959 5.1633C13.0383 5.26971 12.9164 5.42075 12.846 5.59687L11.952 7.74084C11.1932 9.57889 9.75436 11.0568 7.93246 11.8696L5.57925 12.9096C4.80692 13.2499 4.80692 14.3689 5.57925 14.7102L8.00788 15.7832C9.7838 16.5751 11.1974 18.0003 11.9701 19.7779L12.8531 21.7897C12.9257 21.9615 13.0476 22.1082 13.2036 22.2113C13.3596 22.3145 13.5427 22.3695 13.73 22.3695C13.9173 22.3695 14.1004 22.3145 14.2564 22.2113C14.4124 22.1082 14.5343 21.9625 14.6069 21.7907ZM23.4435 26.6892L23.6919 26.1227C24.1275 25.1206 24.9244 24.3172 25.9255 23.8706L26.6897 23.5313C26.7823 23.4889 26.8608 23.421 26.9158 23.3356C26.9708 23.2501 27 23.1508 27 23.0494C27 22.9479 26.9708 22.8486 26.9158 22.7632C26.8608 22.6778 26.7823 22.6098 26.6897 22.5674L25.9687 22.2481C24.9417 21.7897 24.1306 20.9563 23.703 19.92L23.4476 19.3084C23.4098 19.2141 23.3445 19.1332 23.26 19.0762C23.1756 19.0193 23.0759 18.9888 22.9739 18.9888C22.8719 18.9888 22.7722 19.0193 22.6878 19.0762C22.6033 19.1332 22.538 19.2141 22.5002 19.3084L22.2448 19.919C21.8174 20.9557 21.0063 21.7894 19.9791 22.2481L19.257 22.5684C19.1647 22.611 19.0865 22.6789 19.0318 22.7642C18.977 22.8495 18.9479 22.9486 18.9479 23.0499C18.9479 23.1511 18.977 23.2503 19.0318 23.3356C19.0865 23.4209 19.1647 23.4888 19.257 23.5313L20.0213 23.8696C21.023 24.3162 21.8202 25.12 22.2559 26.1227L22.5043 26.6892C22.6853 27.1036 23.2625 27.1036 23.4435 26.6892Z" fill="white"/>
</g>
<defs>
<clipPath id="clip0_208_3">
<rect width="32" height="32" rx="16" fill="white"/>
</clipPath>
</defs>
</svg>
