<svg width="20" height="20" viewBox="0 0 20 20" fill="none" xmlns="http://www.w3.org/2000/svg">
<path d="M10 0C7.34784 0 4.8043 1.05357 2.92893 2.92893C1.05357 4.8043 0 7.34784 0 10C0 12.6522 1.05357 15.1957 2.92893 17.0711C4.8043 18.9464 7.34784 20 10 20C12.6522 20 15.1957 18.9464 17.0711 17.0711C18.9464 15.1957 20 12.6522 20 10C20 7.34784 18.9464 4.8043 17.0711 2.92893C15.1957 1.05357 12.6522 0 10 0ZM5 5H15C15.1788 5 15.3513 5.03875 15.5113 5.11L10 11.5387L4.48875 5.11C4.64929 5.03704 4.82366 4.99952 5 5ZM3.75 13.75V6.25L3.7525 6.17125L7.4175 10.4475L3.7925 14.0725C3.76387 13.9674 3.74957 13.8589 3.75 13.75ZM15 15H5C4.89 15 4.78125 14.985 4.6775 14.9575L8.235 11.4L10.0013 13.46L11.7675 11.4L15.325 14.9575C15.2199 14.9861 15.1114 15.0004 15.0025 15H15ZM16.25 13.75C16.25 13.86 16.235 13.9688 16.2075 14.0725L12.5825 10.4475L16.2475 6.17125L16.25 6.25V13.75Z" fill="#617859"/>
</svg>
