<svg width="18" height="17" viewBox="0 0 18 17" fill="none" xmlns="http://www.w3.org/2000/svg">
<path fill-rule="evenodd" clip-rule="evenodd" d="M10.35 0C12.3789 0 14.3247 0.801267 15.7594 2.22753C17.194 3.65379 18 5.58822 18 7.60526C18 9.6223 17.194 11.5567 15.7594 12.983C14.3247 14.4093 12.3789 15.2105 10.35 15.2105H9.9V16.0963C9.9 16.2151 9.87646 16.3326 9.83072 16.4423C9.78498 16.552 9.71795 16.6517 9.63344 16.7356C9.54894 16.8196 9.44862 16.8861 9.33824 16.9315C9.22785 16.9768 9.10955 17.0001 8.9901 17C6.7761 16.9982 4.5333 16.2636 2.8314 14.7596C1.1142 13.2403 0.0018 10.9829 0 8.06068V7.60526C0 5.58822 0.80598 3.65379 2.24063 2.22753C3.67529 0.801267 5.62109 0 7.65 0H10.35ZM5.85 6.26316C5.49196 6.26316 5.14858 6.40456 4.89541 6.65625C4.64223 6.90794 4.5 7.24931 4.5 7.60526C4.5 7.96121 4.64223 8.30258 4.89541 8.55427C5.14858 8.80597 5.49196 8.94737 5.85 8.94737C6.20804 8.94737 6.55142 8.80597 6.80459 8.55427C7.05777 8.30258 7.2 7.96121 7.2 7.60526C7.2 7.24931 7.05777 6.90794 6.80459 6.65625C6.55142 6.40456 6.20804 6.26316 5.85 6.26316ZM12.15 6.26316C11.792 6.26316 11.4486 6.40456 11.1954 6.65625C10.9422 6.90794 10.8 7.24931 10.8 7.60526C10.8 7.96121 10.9422 8.30258 11.1954 8.55427C11.4486 8.80597 11.792 8.94737 12.15 8.94737C12.508 8.94737 12.8514 8.80597 13.1046 8.55427C13.3578 8.30258 13.5 7.96121 13.5 7.60526C13.5 7.24931 13.3578 6.90794 13.1046 6.65625C12.8514 6.40456 12.508 6.26316 12.15 6.26316Z" fill="#0038FF"/>
</svg>
