<svg width="20" height="20" viewBox="0 0 20 20" fill="none" xmlns="http://www.w3.org/2000/svg">
<path d="M10 0C4.475 0 0 4.58819 0 10.2529C0 14.7899 2.8625 18.6219 6.8375 19.9804C7.3375 20.0701 7.525 19.7625 7.525 19.4934C7.525 19.2499 7.5125 18.4425 7.5125 17.5838C5 18.058 4.35 16.9558 4.15 16.3791C4.0375 16.0843 3.55 15.1743 3.125 14.9308C2.775 14.7386 2.275 14.2644 3.1125 14.2516C3.9 14.2388 4.4625 14.9949 4.65 15.3025C5.55 16.8533 6.9875 16.4175 7.5625 16.1484C7.65 15.4819 7.9125 15.0334 8.2 14.777C5.975 14.5207 3.65 13.6364 3.65 9.71466C3.65 8.59965 4.0375 7.67689 4.675 6.95918C4.575 6.70286 4.225 5.65193 4.775 4.24215C4.775 4.24215 5.6125 3.97301 7.525 5.29308C8.325 5.06239 9.175 4.94704 10.025 4.94704C10.875 4.94704 11.725 5.06239 12.525 5.29308C14.4375 3.9602 15.275 4.24215 15.275 4.24215C15.825 5.65193 15.475 6.70286 15.375 6.95918C16.0125 7.67689 16.4 8.58684 16.4 9.71466C16.4 13.6492 14.0625 14.5207 11.8375 14.777C12.2 15.0975 12.5125 15.7126 12.5125 16.6738C12.5125 18.0452 12.5 19.1474 12.5 19.4934C12.5 19.7625 12.6875 20.0829 13.1875 19.9804C15.1728 19.2935 16.8979 17.9854 18.12 16.2403C19.3421 14.4953 19.9997 12.4012 20 10.2529C20 4.58819 15.525 0 10 0Z" fill="#617859"/>
</svg>
