<svg width="20" height="20" viewBox="0 0 20 20" fill="none" xmlns="http://www.w3.org/2000/svg">
<path d="M10 0C15.523 0 20 4.477 20 10C20 15.523 15.523 20 10 20C4.477 20 0 15.523 0 10C0 4.477 4.477 0 10 0ZM13 4C12.7 4 12.432 4.131 12.249 4.34L10.599 4.01C10.5322 3.99652 10.4634 3.99683 10.3967 4.0109C10.3301 4.02498 10.267 4.05253 10.2114 4.09186C10.1558 4.13119 10.1088 4.18147 10.0733 4.23962C10.0378 4.29776 10.0146 4.36255 10.005 4.43L9.637 7.008C8.214 7.071 6.898 7.501 5.891 8.206C5.69915 8.34006 5.51641 8.48671 5.344 8.645C4.98851 8.47096 4.57864 8.44448 4.20372 8.57133C3.82879 8.69817 3.51919 8.96807 3.34239 9.32219C3.1656 9.67631 3.13593 10.086 3.25986 10.4619C3.38378 10.8378 3.65126 11.1495 4.004 11.329L4 11.5C4 12.882 4.802 14.032 5.891 14.794C6.983 15.56 8.439 16 10 16C11.56 16 13.017 15.559 14.109 14.794C15.199 14.032 16 12.882 16 11.5L15.996 11.33C16.3521 11.1523 16.6229 10.8404 16.7491 10.463C16.8752 10.0856 16.8462 9.67355 16.6685 9.3175C16.4908 8.96145 16.1789 8.69057 15.8015 8.56445C15.4241 8.43833 15.0121 8.46731 14.656 8.645C14.4836 8.48638 14.3009 8.33939 14.109 8.205C13.169 7.548 11.959 7.129 10.644 7.025L10.92 5.094L12.052 5.32C12.1109 5.49424 12.2166 5.64887 12.3576 5.7669C12.4987 5.88492 12.6695 5.96177 12.8514 5.98899C13.0333 6.01621 13.2192 5.99274 13.3886 5.92117C13.558 5.84961 13.7044 5.73271 13.8117 5.58333C13.9189 5.43396 13.9829 5.25789 13.9966 5.0745C14.0103 4.8911 13.9732 4.70748 13.8893 4.54382C13.8054 4.38017 13.678 4.24281 13.5211 4.14687C13.3642 4.05093 13.1839 4.00011 13 4ZM7.5 10C7.89782 10 8.27936 10.158 8.56066 10.4393C8.84196 10.7206 9 11.1022 9 11.5C9 11.8978 8.84196 12.2794 8.56066 12.5607C8.27936 12.842 7.89782 13 7.5 13C7.10218 13 6.72064 12.842 6.43934 12.5607C6.15804 12.2794 6 11.8978 6 11.5C6 11.1022 6.15804 10.7206 6.43934 10.4393C6.72064 10.158 7.10218 10 7.5 10ZM12.5 10C12.8978 10 13.2794 10.158 13.5607 10.4393C13.842 10.7206 14 11.1022 14 11.5C14 11.8978 13.842 12.2794 13.5607 12.5607C13.2794 12.842 12.8978 13 12.5 13C12.1022 13 11.7206 12.842 11.4393 12.5607C11.158 12.2794 11 11.8978 11 11.5C11 11.1022 11.158 10.7206 11.4393 10.4393C11.7206 10.158 12.1022 10 12.5 10Z" fill="#617859"/>
</svg>
