<?xml version="1.0" encoding="UTF-8" standalone="no"?>
<svg xmlns="http://www.w3.org/2000/svg" width="20" height="20" viewBox="0 0 20 20">
  <path class="accentColor shorcutDarkColor"
        d="M10 0C15.5228 0 20 4.47715 20 10C20 15.5228 15.5228 20 10 20C4.47715 20 0 15.5228 0 10C0 4.47715 4.47715 0 10 0ZM8.69434 10.667L4.04199 15.958H5.09277L9.16016 11.3311L12.4092 15.958H15.958L11.1348 9.08789L15.5713 4.04199H14.5205L10.666 8.42285L7.59082 4.04199H4.04199L8.69434 10.667ZM10.1143 9.05371L10.585 9.71387L14.5205 15.2207H12.9053L9.69434 10.7246L9.22266 10.0645L5.47168 4.81738H7.08691L10.1143 9.05371Z"
          fill="#617859"/>
</svg>
