<svg width="20" height="20" viewBox="0 0 20 20" fill="none" xmlns="http://www.w3.org/2000/svg">
<path d="M11.6698 9.82604L9.33021 8.73437C9.12604 8.63958 8.95833 8.74583 8.95833 8.97187V11.0281C8.95833 11.2542 9.12604 11.3604 9.33021 11.2656L11.6688 10.174C11.874 10.0781 11.874 9.92188 11.6698 9.82604ZM10 0C4.47708 0 0 4.47708 0 10C0 15.5229 4.47708 20 10 20C15.5229 20 20 15.5229 20 10C20 4.47708 15.5229 0 10 0ZM10 14.0625C4.88125 14.0625 4.79167 13.601 4.79167 10C4.79167 6.39896 4.88125 5.9375 10 5.9375C15.1187 5.9375 15.2083 6.39896 15.2083 10C15.2083 13.601 15.1187 14.0625 10 14.0625Z" fill="#617859"/>
</svg>
