<svg width="28" height="28" viewBox="0 0 28 28" fill="none" xmlns="http://www.w3.org/2000/svg">
<rect width="28" height="28" rx="14" fill="#FF000F"/>
<path d="M22.9991 13.1645C22.9954 13.0734 22.9651 12.9855 22.9119 12.9118C22.8588 12.8382 22.7853 12.7822 22.7007 12.751L13.8694 9.98251C13.7046 9.93107 13.6294 10.0197 13.7018 10.1788L15.3442 13.8304C15.4167 13.9904 15.604 14.18 15.7602 14.2524L18.0135 15.2966C18.1697 15.369 18.1735 15.4957 18.021 15.5776L8.40754 20.7525C8.25601 20.8345 8.23624 20.8059 8.36425 20.6887L12.0575 17.3219C12.197 17.1796 12.28 16.9905 12.291 16.7904L12.2947 6.58526C12.291 6.49394 12.2606 6.40578 12.2073 6.33199C12.154 6.25821 12.0803 6.20212 11.9954 6.17084L8.2993 5.01334C8.13459 4.9619 8 5.06383 8 5.24008V20.7211C8 20.8974 8.11483 21.1241 8.25601 21.2251L12.0114 23.9183C12.1526 24.0193 12.3879 24.0279 12.5357 23.9373L22.7308 17.723C22.8093 17.6688 22.8744 17.597 22.921 17.5133C22.9677 17.4295 22.9947 17.336 23 17.24V13.1645H22.9991Z" fill="white"/>
</svg>
