<?xml version="1.0" standalone="no"?>
<!DOCTYPE svg PUBLIC "-//W3C//DTD SVG 20010904//EN"
 "http://www.w3.org/TR/2001/REC-SVG-20010904/DTD/svg10.dtd">
<svg version="1.0" xmlns="http://www.w3.org/2000/svg"
 width="300.000000pt" height="300.000000pt" viewBox="0 0 300.000000 300.000000"
 preserveAspectRatio="xMidYMid meet">
<g transform="translate(0.000000,300.000000) scale(0.100000,-0.100000)"
fill="#000000" stroke="none">
<path d="M1238 2301 c-1 -5 -31 -40 -65 -78 l-62 -69 -59 4 c-73 5 -99 -7
-174 -84 l-56 -57 19 -44 19 -45 -26 -73 c-22 -62 -24 -79 -15 -107 6 -18 46
-171 91 -340 44 -170 89 -328 101 -353 12 -25 42 -64 68 -86 70 -62 397 -279
420 -279 22 0 349 215 419 275 58 50 83 105 127 275 20 80 47 183 60 230 12
47 37 137 54 201 l31 116 -26 68 -25 69 19 46 19 46 -42 45 c-89 94 -100 100
-178 98 l-71 -2 -70 77 -71 76 -252 0 c-143 0 -253 -4 -255 -9z m357 -252 c61
-21 84 -22 216 -3 l46 6 70 -94 c88 -116 117 -170 108 -199 -4 -12 -52 -69
-107 -128 -95 -101 -99 -107 -94 -141 22 -128 21 -134 -21 -178 -29 -31 -48
-42 -69 -42 -47 0 -162 73 -217 137 -27 31 -12 49 82 108 51 31 81 56 81 67 0
10 -16 49 -36 88 -24 47 -33 77 -29 91 7 22 84 62 185 95 53 18 54 19 25 25
-55 12 -131 9 -186 -7 -82 -24 -82 -23 -58 -144 11 -58 19 -118 17 -135 -3
-27 -8 -31 -53 -43 -40 -10 -62 -10 -108 -1 -33 7 -61 18 -64 26 -3 8 5 67 17
133 12 66 20 125 17 133 -3 7 -38 21 -79 32 -60 15 -87 16 -139 9 l-64 -9 55
-19 c104 -34 177 -72 183 -95 3 -13 -8 -47 -29 -90 -19 -38 -34 -78 -34 -88 0
-11 23 -32 63 -57 79 -50 107 -75 107 -96 0 -23 -76 -93 -141 -129 -86 -48
-134 -39 -178 33 -25 40 -26 72 -5 126 11 27 14 47 8 59 -5 10 -53 65 -106
122 -109 114 -115 132 -76 198 48 82 162 222 175 217 8 -3 53 -11 101 -17 79
-10 92 -9 142 9 72 27 122 27 195 1z m-59 -754 c72 -28 184 -90 184 -101 0
-15 -205 -174 -224 -174 -9 0 -53 30 -98 66 -125 100 -129 104 -123 115 7 11
132 75 185 95 19 7 36 13 36 13 1 1 19 -6 40 -14z"/>
</g>
</svg>
