<svg width="24" height="24" viewBox="0 0 24 24" xmlns="http://www.w3.org/2000/svg">
    <path fill="#FDFDFD"
        d="M11.997 17.887a.903.903 0 0 1 .896.796l.006.105v1.313a.9.9 0 0 1-.85.898.903.903 0 0 1-.948-.794l-.006-.104v-1.313a.9.9 0 0 1 .902-.9Zm5.446-1.74.929.927a.9.9 0 0 1-1.277 1.274l-.928-.928a.9.9 0 0 1 1.276-1.274Zm-9.618 0a.9.9 0 0 1 0 1.273l-.928.929a.903.903 0 0 1-1.276-1.276l.93-.928a.903.903 0 0 1 1.275 0l-.001.001Zm4.184-9.128c1.322 0 2.59.524 3.524 1.458a4.976 4.976 0 0 1 0 7.042 4.987 4.987 0 0 1-8.51-3.521c0-1.32.526-2.587 1.46-3.521a4.988 4.988 0 0 1 3.526-1.458Zm-.686 2.278a.677.677 0 0 0-.67.584l-.007.092v2.707l.006.092a.676.676 0 0 0 .58.578l.09.006h1.805l.092-.006a.676.676 0 0 0 .579-.578l.006-.092-.006-.092a.676.676 0 0 0-.579-.578l-.092-.006H12V9.973l-.006-.092a.675.675 0 0 0-.671-.584Zm8.776 1.819a.902.902 0 0 1 .105 1.796l-.105.006h-1.313a.902.902 0 0 1-.106-1.796l.106-.006h1.313ZM5.215 11.09a.902.902 0 0 1 .69 1.48.902.902 0 0 1-.585.316l-.105.007H3.9a.903.903 0 0 1-.69-1.48.902.902 0 0 1 .586-.316l.104-.007h1.315Zm1.597-5.512.085.075.929.928a.9.9 0 0 1-1.191 1.35l-.085-.076-.93-.927a.9.9 0 0 1 1.192-1.35Zm11.56.075a.9.9 0 0 1 .075 1.19l-.075.085-.93.928a.903.903 0 0 1-1.35-1.19l.075-.085.93-.929a.903.903 0 0 1 1.275.001ZM12 3a.903.903 0 0 1 .896.796l.006.105v1.312a.9.9 0 0 1-1.485.695.901.901 0 0 1-.314-.59l-.006-.105V3.9A.9.9 0 0 1 12 3Z" />
</svg>