<svg width="28" height="28" viewBox="0 0 28 28" fill="none" xmlns="http://www.w3.org/2000/svg">
<rect width="28" height="28" rx="14" fill="#FF000F"/>
<path d="M10.5 7C10.1022 7 9.72064 7.15804 9.43934 7.43934C9.15804 7.72064 9 8.10218 9 8.5C9 8.89782 9.15804 9.27936 9.43934 9.56066C9.72064 9.84196 10.1022 10 10.5 10C10.8978 10 11.2794 9.84196 11.5607 9.56066C11.842 9.27936 12 8.89782 12 8.5C12 8.10218 11.842 7.72064 11.5607 7.43934C11.2794 7.15804 10.8978 7 10.5 7ZM12 4C13.3261 4 14.5979 4.52678 15.5355 5.46447C16.4732 6.40215 17 7.67392 17 9C17 10.7 16.15 12.2 14.86 13.1C16.44 13.25 18.22 13.61 20 14.5C23 16 24 14 24 14C24 14 23 23 17 23H11C11 23 6 23 6 18C6 15 9 14 8 12C4 12 4 8.5 4 8.5C5 9 6.24 9 7 8.65C7.09333 7.3872 7.66043 6.20632 8.58766 5.34399C9.5149 4.48166 10.7338 4.0016 12 4Z" fill="white"/>
</svg>
