<svg width="24" height="24" viewBox="0 0 24 24" fill="none" xmlns="http://www.w3.org/2000/svg">
<path d="M8 10.255V5C8 3.93913 8.42143 2.92172 9.17157 2.17157C9.92172 1.42143 10.9391 1 12 1C13.0609 1 14.0783 1.42143 14.8284 2.17157C15.5786 2.92172 16 3.93913 16 5V10.255C17.223 11.1066 18.1423 12.3262 18.6241 13.7365C19.1059 15.1467 19.125 16.6739 18.6788 18.0958C18.2325 19.5176 17.3441 20.76 16.1429 21.642C14.9416 22.524 13.4903 22.9996 12 22.9996C10.5097 22.9996 9.05837 22.524 7.85714 21.642C6.6559 20.76 5.7675 19.5176 5.32123 18.0958C4.87496 16.6739 4.89412 15.1467 5.37592 13.7365C5.85772 12.3262 6.77702 11.1066 8 10.255ZM8 16C8 17.0609 8.42143 18.0783 9.17157 18.8284C9.92172 19.5786 10.9391 20 12 20C13.0609 20 14.0783 19.5786 14.8284 18.8284C15.5786 18.0783 16 17.0609 16 16H8Z" fill="#0000FF"/>
</svg>
