<svg width="28" height="28" viewBox="0 0 28 28" fill="none" xmlns="http://www.w3.org/2000/svg">
<rect width="28" height="28" rx="14" fill="#FF000F"/>
<path d="M24.805 12.0177C24.9359 12.756 25.0011 13.504 25 14.2534C25 17.6 23.7796 20.4297 21.6559 22.345H21.6587C19.8016 24.0265 17.2487 25 14.2216 25C11.2455 25 8.3912 23.8411 6.28674 21.7783C4.18227 19.7154 3 16.9176 3 14.0004C3 11.0831 4.18227 8.28528 6.28674 6.22244C8.3912 4.15961 11.2455 3.00073 14.2216 3.00073C17.0073 2.96875 19.6976 3.99459 21.7289 5.86338L18.5251 9.00378C17.367 7.92165 15.8214 7.32907 14.2216 7.35383C11.2942 7.35383 8.80719 9.28977 7.92068 11.8967C7.45064 13.2627 7.45064 14.7421 7.92068 16.1082H7.92489C8.8156 18.711 11.2984 20.6469 14.2258 20.6469C15.7379 20.6469 17.0368 20.2674 18.044 19.5964H18.0398C18.6246 19.2167 19.1248 18.7247 19.5103 18.1502C19.8958 17.5758 20.1585 16.9307 20.2827 16.2539H14.2216V12.0191L24.805 12.0177Z" fill="white"/>
</svg>
