<svg width="32" height="32" viewBox="0 0 32 32" fill="none" xmlns="http://www.w3.org/2000/svg">
<path d="M23.476 13.9925L16.847 3.43652C16.7508 3.30153 16.6238 3.19148 16.4764 3.11555C16.3291 3.03962 16.1657 3 16 3C15.8343 3 15.6709 3.03962 15.5236 3.11555C15.3762 3.19148 15.2492 3.30153 15.153 3.43652L8.494 14.0425C7.56889 15.5348 7.05357 17.2446 7 18.9995C7 21.3865 7.94821 23.6757 9.63604 25.3635C11.3239 27.0513 13.6131 27.9995 16 27.9995C18.3869 27.9995 20.6761 27.0513 22.364 25.3635C24.0518 23.6757 25 21.3865 25 18.9995C24.9425 17.2253 24.4167 15.4979 23.476 13.9925ZM16 25.9995C14.1442 25.9971 12.3651 25.2589 11.0529 23.9466C9.74064 22.6344 9.00238 20.8553 9 18.9995C9.05315 17.6011 9.47321 16.2413 10.218 15.0565L11.153 13.5665L21.227 23.6405C20.5727 24.3818 19.7683 24.9755 18.8672 25.3824C17.9661 25.7893 16.9887 25.999 16 25.9995Z" fill="white"/>
</svg>
