<svg height="24" viewBox="0 0 29 29" width="24" xmlns="http://www.w3.org/2000/svg">
    <path fill="#fff"
        d="M14.5 2c3.93 0 7.125 3.293 7.125 7.367 0 5.522-7.125 13.68-7.125 13.68S7.375 14.89 7.375 9.368C7.375 5.293 10.569 2 14.5 2Zm0 4.952c-.63 0-1.234.261-1.68.726a2.53 2.53 0 0 0-.695 1.75c0 .657.25 1.287.696 1.752.445.464 1.05.725 1.679.725.63 0 1.234-.261 1.68-.725a2.53 2.53 0 0 0 .695-1.751 2.53 2.53 0 0 0-.696-1.751 2.327 2.327 0 0 0-1.679-.726ZM24 23.048C24 25.784 19.749 28 14.5 28S5 25.784 5 23.048c0-1.597 1.449-3.021 3.693-3.925l.76 1.127c-1.282.557-2.078 1.324-2.078 2.179 0 1.708 3.194 3.095 7.125 3.095 3.93 0 7.125-1.387 7.125-3.095 0-.855-.796-1.622-2.078-2.18l.76-1.126C22.55 20.027 24 21.45 24 23.048Z" />
</svg>