<svg width="45" height="45" viewBox="0 0 45 45" fill="none" xmlns="http://www.w3.org/2000/svg">
<path fill-rule="evenodd" clip-rule="evenodd" d="M5.00087 20.0137C5.00087 18.0425 5.38915 16.0906 6.14353 14.2695C6.89791 12.4484 8.00363 10.7936 9.39755 9.39981C10.7915 8.00598 12.4463 6.90034 14.2675 6.146C16.0888 5.39167 18.0408 5.00342 20.0121 5.00342C21.9834 5.00342 23.9354 5.39167 25.7566 6.146C27.5779 6.90034 29.2327 8.00598 30.6266 9.39981C32.0205 10.7936 33.1262 12.4484 33.8806 14.2695C34.635 16.0906 35.0233 18.0425 35.0233 20.0137C35.0233 23.9946 33.4417 27.8125 30.6266 30.6275C27.8114 33.4425 23.9933 35.0239 20.0121 35.0239C16.0309 35.0239 12.2127 33.4425 9.39755 30.6275C6.5824 27.8125 5.00087 23.9946 5.00087 20.0137ZM20.0121 1.23625e-07C16.8268 0.000456127 13.6877 0.761065 10.8556 2.21861C8.02347 3.67616 5.58012 5.78855 3.72863 8.38023C1.87714 10.9719 0.670974 13.968 0.210373 17.1196C-0.250229 20.2711 0.0480379 23.4871 1.08039 26.5002C2.11273 29.5133 3.84934 32.2365 6.14589 34.4435C8.44244 36.6505 11.2326 38.2776 14.2845 39.1895C17.3364 40.1014 20.5618 40.2718 23.6928 39.6865C26.8238 39.1013 29.7699 37.7772 32.2862 35.8245L40.7601 44.2977C41.2319 44.7534 41.8639 45.0056 42.5199 44.9999C43.1758 44.9942 43.8033 44.7311 44.2672 44.2673C44.7311 43.8034 44.9942 43.176 44.9999 42.52C45.0056 41.8641 44.7534 41.2322 44.2977 40.7603L35.8239 32.287C38.1208 29.3287 39.5415 25.7852 39.9244 22.0595C40.3073 18.3338 39.637 14.5754 37.9897 11.2118C36.3424 7.84812 33.7843 5.01415 30.6062 3.03213C27.4281 1.05011 23.7576 -0.000416085 20.0121 1.23625e-07ZM20.0121 30.0205C22.6662 30.0205 25.2117 28.9662 27.0884 27.0896C28.9652 25.2129 30.0195 22.6676 30.0195 20.0137C30.0195 17.3597 28.9652 14.8144 27.0884 12.9378C25.2117 11.0611 22.6662 10.0068 20.0121 10.0068C17.3579 10.0068 14.8125 11.0611 12.9357 12.9378C11.059 14.8144 10.0046 17.3597 10.0046 20.0137C10.0046 22.6676 11.059 25.2129 12.9357 27.0896C14.8125 28.9662 17.3579 30.0205 20.0121 30.0205Z" fill="#4382EC"/>
</svg>
