<svg width="20" height="20" viewBox="0 0 20 20" fill="none" xmlns="http://www.w3.org/2000/svg">
<path d="M14.2778 10C13.9684 10 13.6716 9.87708 13.4528 9.65829C13.234 9.4395 13.1111 9.14275 13.1111 8.83333C13.1111 8.52391 13.234 8.22717 13.4528 8.00837C13.6716 7.78958 13.9684 7.66667 14.2778 7.66667C14.5872 7.66667 14.8839 7.78958 15.1027 8.00837C15.3215 8.22717 15.4444 8.52391 15.4444 8.83333C15.4444 9.14275 15.3215 9.4395 15.1027 9.65829C14.8839 9.87708 14.5872 10 14.2778 10ZM11.9444 6.88889C11.635 6.88889 11.3383 6.76597 11.1195 6.54718C10.9007 6.32839 10.7778 6.03164 10.7778 5.72222C10.7778 5.4128 10.9007 5.11606 11.1195 4.89726C11.3383 4.67847 11.635 4.55556 11.9444 4.55556C12.2539 4.55556 12.5506 4.67847 12.7694 4.89726C12.9882 5.11606 13.1111 5.4128 13.1111 5.72222C13.1111 6.03164 12.9882 6.32839 12.7694 6.54718C12.5506 6.76597 12.2539 6.88889 11.9444 6.88889ZM8.05556 6.88889C7.74614 6.88889 7.44939 6.76597 7.2306 6.54718C7.0118 6.32839 6.88889 6.03164 6.88889 5.72222C6.88889 5.4128 7.0118 5.11606 7.2306 4.89726C7.44939 4.67847 7.74614 4.55556 8.05556 4.55556C8.36497 4.55556 8.66172 4.67847 8.88051 4.89726C9.09931 5.11606 9.22222 5.4128 9.22222 5.72222C9.22222 6.03164 9.09931 6.32839 8.88051 6.54718C8.66172 6.76597 8.36497 6.88889 8.05556 6.88889ZM5.72222 10C5.4128 10 5.11606 9.87708 4.89726 9.65829C4.67847 9.4395 4.55556 9.14275 4.55556 8.83333C4.55556 8.52391 4.67847 8.22717 4.89726 8.00837C5.11606 7.78958 5.4128 7.66667 5.72222 7.66667C6.03164 7.66667 6.32839 7.78958 6.54718 8.00837C6.76597 8.22717 6.88889 8.52391 6.88889 8.83333C6.88889 9.14275 6.76597 9.4395 6.54718 9.65829C6.32839 9.87708 6.03164 10 5.72222 10ZM10 3C8.14348 3 6.36301 3.7375 5.05025 5.05025C3.7375 6.36301 3 8.14348 3 10C3 11.8565 3.7375 13.637 5.05025 14.9497C6.36301 16.2625 8.14348 17 10 17C10.3094 17 10.6062 16.8771 10.825 16.6583C11.0437 16.4395 11.1667 16.1428 11.1667 15.8333C11.1667 15.53 11.05 15.2578 10.8633 15.0556C10.6844 14.8456 10.5678 14.5733 10.5678 14.2778C10.5678 13.9684 10.6907 13.6716 10.9095 13.4528C11.1283 13.234 11.425 13.1111 11.7344 13.1111H13.1111C14.1425 13.1111 15.1317 12.7014 15.861 11.9721C16.5903 11.2428 17 10.2536 17 9.22222C17 5.78444 13.8656 3 10 3Z" fill="#2C73D9"/>
</svg>
