<svg viewBox="0 0 24 24" fill="none" xmlns="http://www.w3.org/2000/svg">
    <path style="transform: scale(0.95); transform-origin: center;" fill-rule="evenodd" clip-rule="evenodd"
        opacity="0.9"
        d="M20.9 11.4a9.5 9.5 0 1 1-19 0 9.5 9.5 0 0 1 19 0Zm-7.496-3.402 1.408 1.41c.956.956 1.434 1.434 1.322 1.95-.111.516-.744.753-2.009 1.229l-.876.329c-.339.127-.508.19-.64.304a.97.97 0 0 0-.152.167c-.1.14-.149.315-.245.665-.218.794-.328 1.191-.588 1.34a.724.724 0 0 1-.36.095c-.3 0-.59-.292-1.173-.874l-.449-.45-1.538 1.54a.713.713 0 0 1-1.008-1.006l1.538-1.541-.424-.426c-.578-.579-.867-.868-.87-1.166 0-.129.034-.256.098-.367.148-.258.543-.367 1.331-.584.35-.097.525-.145.666-.246a.97.97 0 0 0 .17-.158c.113-.132.176-.302.3-.643l.318-.866c.469-1.28.703-1.92 1.22-2.034.517-.114.998.368 1.961 1.332Z"
        fill="#ffffff"></path>
</svg>