<svg xmlns="http://www.w3.org/2000/svg" viewBox="0 0 24 24">
    <path fill="#ffffff"
        d="M14.286 6.044a.377.377 0 0 0-.528-.007L5.63 14.164a.372.372 0 0 0 0 .528l3.676 3.677a.37.37 0 0 0 .529 0l8.12-8.12a.38.38 0 0 0 0-.528zM4.88 15.57a.38.38 0 0 0-.625.18L3.13 20.415c-.064.267.186.511.454.453l4.696-1.123c.278-.066.374-.415.179-.625zM20.337 5.24 18.76 3.662a1.876 1.876 0 0 0-2.634 0l-1.05 1.057a.357.357 0 0 0 0 .521l3.684 3.722c.141.15.38.15.521 0l1.057-1.095a1.86 1.86 0 0 0 0-2.627" />
</svg>