<svg viewBox="0 0 24 24" fill="none" xmlns="http://www.w3.org/2000/svg">
    <g style="transform: scale(0.9); transform-origin: center; opacity: 0.8;">
        <circle cx="12" cy="12" r="10" stroke="#ffffff" stroke-width="1.5"></circle>
        <path
            d="M10.8 1.8a9 9 0 0 0-9 9 9 9 0 0 0 9 9 9 9 0 0 0 9-9 9 9 0 0 0-9-9zm.366 3.379c.452-.033.837.17 1.151.404.351.26.748.659 1.206 1.118l1.387 1.388c.455.456.852.85 1.11 1.2.266.357.49.806.375 1.342-.116.537-.507.851-.896 1.067-.38.21-.904.405-1.507.631l-.861.324v.001c-.377.143-.41.165-.426.178a.277.277 0 0 0-.043.047c-.013.018-.033.05-.141.442-.103.375-.194.713-.297.972-.103.256-.268.567-.598.756-.209.119-.447.182-.689.182v-.676l-.002.676c-.38 0-.677-.192-.893-.363-.217-.174-.462-.422-.736-.697v-.001l.476-.477.478-.476c.3.298.481.48.624.594l.058.042a.977.977 0 0 0 .029-.065c.067-.17.138-.42.25-.826.08-.295.157-.608.344-.868a1.629 1.629 0 0 0 0-.002h.001a1.629 1.629 0 0 1 .255-.281c.242-.21.547-.313.833-.42v-.002l.864-.324v.002c.643-.242 1.055-.399 1.325-.55a.893.893 0 0 0 .216-.151c.012-.012.014-.018.014-.018l.002-.003v-.002a.1.1 0 0 0-.005-.023.889.889 0 0 0-.134-.227c-.185-.249-.495-.563-.98-1.05l-1.388-1.386c-.49-.491-.804-.805-1.054-.991a.895.895 0 0 0-.23-.134l-.018-.005H11.257l-.003.003a.895.895 0 0 0-.166.23c-.149.275-.302.69-.541 1.34v.002h-.002l-.313.85-1.265-.464.31-.85c.224-.609.417-1.14.625-1.523.214-.394.528-.788 1.067-.907.067-.014.132-.025.197-.03zm-2.2 3.311.633.232.633.232c-.105.288-.208.597-.415.84-.085.1-.18.19-.286.266-.26.187-.577.263-.872.344-.404.112-.65.183-.82.25l-.066.03a1 1 0 0 0 .044.058c.113.141.293.323.589.619h.002v.002l.871.871a.675.675 0 0 1 .083.085l.897.896-.955.953-.459-.459-1.617 1.617h-.002a.675.675 0 0 1-.954-.952l1.619-1.62-.438-.437h-.002v-.002c-.272-.273-.52-.517-.69-.733-.172-.215-.36-.509-.363-.886l.675-.005-.675.004a1.39 1.39 0 0 1 .185-.702c.19-.327.499-.49.754-.592.257-.104.592-.195.963-.297.395-.11.424-.127.442-.14a.277.277 0 0 0 .049-.045c.013-.016.035-.045.176-.429zm-.307 1.914-.178-.65H8.48l.179.65z"
            fill="#ffffff"></path>
    </g>
</svg>