<svg viewBox="0 0 24 24" fill="none" xmlns="http://www.w3.org/2000/svg">
    <g style="transform: scale(0.9); transform-origin: center; opacity: 0.8;">
        <circle cx="12" cy="12" r="10" stroke="#ffffff" stroke-width="1.5"></circle>
        <path fill="#ffffff"
            d="m14.495 7.975.53-.53-.53.53Zm1.54 1.543-.53.53.53-.53Zm-5.166 5.696-.53.53.53-.53Zm-2.058-2.06.53-.53-.53.53Zm6.473-.157-.264-.702.264.702Zm-.96.36.265.702-.264-.702Zm-3.658-3.666-.704-.258.704.258Zm.347-.948.704.258-.704-.258Zm-1.59 2.094.199.723-.2-.723Zm.728-.27-.438-.608.438.609Zm.187-.172.57.487-.57-.487Zm3.288 3.295.49.567-.49-.567Zm-.436.91-.723-.198.723.199Zm.269-.727-.61-.437.61.437Zm-5.6-1.995-.75.004.75-.004Zm.106-.402-.65-.374.65.374Zm4.188 4.696v-.75.75Zm.394-.105-.372-.651.372.651Zm-.198-9.549.161.732-.161-.732Zm-5.38 9.452a.75.75 0 0 0 1.062 1.06l-1.062-1.06Zm3.388-1.269a.75.75 0 1 0-1.061-1.06l1.061 1.06Zm3.607-6.196 1.541 1.543 1.061-1.06-1.54-1.543-1.062 1.06Zm-2.564 6.18L9.34 12.623l-1.06 1.06 2.058 2.06 1.06-1.06Zm3.62-2.39-.959.36.528 1.404.958-.36-.527-1.404ZM11.37 9.95 11.718 9l-1.409-.516-.347.948 1.408.516Zm-1.748 1.61c.328-.09.678-.175.967-.383L9.713 9.96c-.02.014-.052.034-.49.155l.399 1.446Zm.34-2.126c-.156.426-.18.458-.195.476l1.142.973c.23-.271.344-.613.461-.933l-1.408-.516Zm.627 1.743c.118-.085.225-.184.32-.294l-1.142-.973a.308.308 0 0 1-.054.05l.876 1.217Zm3.472 1.48c-.318.119-.658.235-.927.467l.982 1.134c.018-.015.05-.038.473-.198l-.528-1.404Zm-.148 2.143c.12-.436.141-.47.155-.489l-1.219-.874c-.207.289-.292.638-.382.966l1.446.398Zm-.779-1.676a1.81 1.81 0 0 0-.285.313l1.219.874a.308.308 0 0 1 .049-.053l-.983-1.134Zm-3.793-.499c-.33-.33-.53-.533-.656-.69-.127-.16-.076-.154-.076-.061l-1.5.01c.003.419.212.746.403.985.19.24.465.512.768.816l1.061-1.06Zm-.118-2.51c-.413.114-.786.215-1.071.33-.284.113-.627.294-.837.658l1.3.748c-.047.081-.093.062.096-.014.187-.075.461-.152.91-.276l-.398-1.446Zm-.614 1.759c0-.008.002-.016.006-.023l-1.3-.748a1.545 1.545 0 0 0-.206.78l1.5-.01Zm1.73 3.872c.305.305.579.581.82.774.24.191.57.402.992.403l.003-1.5c.094 0 .1.05-.06-.077-.159-.126-.362-.329-.694-.66l-1.061 1.06Zm2.128-1.343c-.124.452-.202.729-.277.918-.077.19-.097.143-.015.096l.743 1.303c.367-.21.55-.555.664-.84.115-.287.217-.663.331-1.08l-1.446-.397Zm-.316 2.52c.27 0 .534-.07.767-.203l-.743-1.303a.042.042 0 0 1-.021.006l-.002 1.5Zm3.354-6.874c.54.54.884.888 1.09 1.165.097.131.135.21.149.252a.112.112 0 0 1 .006.026v.003l1.466.317c.128-.596-.121-1.093-.416-1.491-.287-.388-.728-.826-1.234-1.332l-1.06 1.06Zm.042 3.651c.67-.251 1.252-.468 1.674-.702.433-.24.866-.59.995-1.186l-1.466-.317-.001.003s-.004.007-.017.02a.992.992 0 0 1-.24.168c-.3.168-.757.341-1.472.61l.527 1.404Zm-.522-6.254c-.509-.51-.95-.954-1.34-1.243-.399-.297-.899-.548-1.498-.416l.323 1.464h.008l.02.006a.995.995 0 0 1 .254.15c.278.207.628.554 1.172 1.1l1.061-1.061Zm-3.308 1.556c.266-.723.437-1.185.603-1.49a.995.995 0 0 1 .183-.257l.005-.003h.002l-.323-1.465c-.599.132-.947.57-1.185 1.008-.231.426-.445 1.014-.693 1.691l1.409.516Zm-3.686 8.03 2.326-2.33-1.061-1.06-2.327 2.329 1.062 1.06Z" />
    </g>
</svg>