<svg width="34" height="34" viewBox="0 0 34 34" fill="none" xmlns="http://www.w3.org/2000/svg">
<path d="M19.4038 17L24.2131 12.1924C24.5321 11.8734 24.7113 11.4408 24.7113 10.9896C24.7113 10.5385 24.5321 10.1059 24.2131 9.7869C23.8941 9.46791 23.4615 9.2887 23.0103 9.2887C22.5592 9.2887 22.1266 9.46791 21.8076 9.7869L17 14.5962L12.1924 9.7869C11.8734 9.46791 11.4408 9.2887 10.9896 9.2887C10.5385 9.2887 10.1059 9.46791 9.7869 9.7869C9.46791 10.1059 9.2887 10.5385 9.2887 10.9896C9.2887 11.4408 9.46791 11.8734 9.7869 12.1924L14.5962 17L9.7869 21.8076C9.46791 22.1266 9.2887 22.5592 9.2887 23.0103C9.2887 23.4615 9.46791 23.8941 9.7869 24.2131C10.1059 24.5321 10.5385 24.7113 10.9896 24.7113C11.4408 24.7113 11.8734 24.5321 12.1924 24.2131L17 19.4038L21.8076 24.2131C22.1266 24.5321 22.5592 24.7113 23.0103 24.7113C23.4615 24.7113 23.8941 24.5321 24.2131 24.2131C24.5321 23.8941 24.7113 23.4615 24.7113 23.0103C24.7113 22.5592 24.5321 22.1266 24.2131 21.8076L19.4038 17ZM17 34C7.6109 34 0 26.3891 0 17C0 7.6109 7.6109 0 17 0C26.3891 0 34 7.6109 34 17C34 26.3891 26.3891 34 17 34Z" fill="#23F22C"/>
</svg>
