<svg width="28" height="28" viewBox="0 0 28 28" fill="none" xmlns="http://www.w3.org/2000/svg">
<rect width="28" height="28" rx="14" fill="#FF000F"/>
<path d="M12 17L17.19 14L12 11V17ZM23.56 9.17C23.69 9.64 23.78 10.27 23.84 11.07C23.91 11.87 23.94 12.56 23.94 13.16L24 14C24 16.19 23.84 17.8 23.56 18.83C23.31 19.73 22.73 20.31 21.83 20.56C21.36 20.69 20.5 20.78 19.18 20.84C17.88 20.91 16.69 20.94 15.59 20.94L14 21C9.81 21 7.2 20.84 6.17 20.56C5.27 20.31 4.69 19.73 4.44 18.83C4.31 18.36 4.22 17.73 4.16 16.93C4.09 16.13 4.06 15.44 4.06 14.84L4 14C4 11.81 4.16 10.2 4.44 9.17C4.69 8.27 5.27 7.69 6.17 7.44C6.64 7.31 7.5 7.22 8.82 7.16C10.12 7.09 11.31 7.06 12.41 7.06L14 7C18.19 7 20.8 7.16 21.83 7.44C22.73 7.69 23.31 8.27 23.56 9.17Z" fill="white"/>
</svg>
