<svg xmlns="http://www.w3.org/2000/svg" width="40" height="40" viewBox="0 0 24 24"><path fill="currentColor" d="M5.85 17.1q1.275-.975 2.85-1.537T12 15t3.3.563 2.85 1.537q.875-1.025 1.363-2.325T20 12q0-3.325-2.337-5.663T12 4 6.337 6.338 4 12q0 1.475.488 2.775T5.85 17.1M12 13q-1.475 0-2.488-1.012T8.5 9.5t1.013-2.488T12 6t2.488 1.013T15.5 9.5t-1.012 2.488T12 13m0 9q-2.075 0-3.9-.788t-3.175-2.137T2.788 15.9 2 12t.788-3.9 2.137-3.175T8.1 2.788 12 2t3.9.788 3.175 2.137T21.213 8.1 22 12t-.788 3.9-2.137 3.175-3.175 2.138T12 22m0-2q1.325 0 2.5-.387t2.15-1.113q-.975-.725-2.15-1.112T12 17t-2.5.388T7.35 18.5q.975.725 2.15 1.113T12 20m0-9q.65 0 1.075-.425T13.5 9.5t-.425-1.075T12 8t-1.075.425T10.5 9.5t.425 1.075T12 11m0 7.5"/></svg>