<svg xmlns="http://www.w3.org/2000/svg" width="40" height="40" viewBox="0 0 24 24"><path fill="currentColor" d="M9 13h6q.425 0 .713-.288T16 12t-.288-.712T15 11H9q-.425 0-.712.288T8 12t.288.713T9 13m0 3h6q.425 0 .713-.288T16 15t-.288-.712T15 14H9q-.425 0-.712.288T8 15t.288.713T9 16m0 3h3q.425 0 .713-.288T13 18t-.288-.712T12 17H9q-.425 0-.712.288T8 18t.288.713T9 19m-3 3q-.825 0-1.412-.587T4 20V4q0-.825.588-1.412T6 2h7.175q.4 0 .763.15t.637.425l4.85 4.85q.275.275.425.638t.15.762V20q0 .825-.587 1.413T18 22zm7-14q0 .425.288.713T14 9h4l-5-5z"/></svg>