<svg xmlns="http://www.w3.org/2000/svg" width="40" height="40" viewBox="0 0 24 24"><path fill="currentColor" d="M8 11.75V7.5q0-.625.438-1.062T9.5 6t1.063.438T11 7.5v4.25q0 .625-.437 1.063T9.5 13.25t-1.062-.437T8 11.75m5-.225V3.5q0-.625.438-1.062T14.5 2t1.063.438T16 3.5v8.025q0 .75-.462 1.125t-1.038.375-1.037-.375T13 11.525m-10 3.45V11.5q0-.625.438-1.062T4.5 10t1.063.438T6 11.5v3.475q0 .75-.462 1.125t-1.038.375-1.037-.375T3 14.975m2.4 6.075q-.65 0-.913-.612T4.7 19.35l4.1-4.1q.275-.275.663-.3t.687.25L13 17.65l5.6-5.6H18q-.425 0-.712-.288T17 11.05t.288-.712.712-.288h3q.425 0 .713.288t.287.712v3q0 .425-.288.713T21 15.05t-.712-.288T20 14.05v-.6l-6.25 6.25q-.275.275-.663.3t-.687-.25L9.55 17.3 6.1 20.75q-.125.125-.312.213t-.388.087"/></svg>