<svg xmlns="http://www.w3.org/2000/svg" width="40" height="40" viewBox="0 0 48 48"><path fill="none" stroke="currentColor" stroke-linecap="round" stroke-linejoin="round" d="M20.75 8.83a4.34 4.34 0 0 1 8.67 0m0 30.34a4.34 4.34 0 0 1-8.67 0m-9.21-25.05 10.84-8.67m5.41 6.77L17 20.88M29.42 8.83v30.34m-8.67 0V8.83"/><path fill="none" stroke="currentColor" stroke-linecap="round" stroke-linejoin="round" d="M27.79 12.22a4.33 4.33 0 0 0-2.71-7.72H25a4.37 4.37 0 0 0-2.64 1m-10.82 8.62a4.33 4.33 0 0 0 2.71 7.71h.07a4.3 4.3 0 0 0 2.68-.95m3.75 9.27 8.67 6.93"/></svg>