<svg xmlns="http://www.w3.org/2000/svg" width="40" height="40" viewBox="0 0 24 24"><path fill="currentColor" d="M20.66 10.2c.096 0 .179.067.195.161.094.526.145 1.092.145 1.639a8.97 8.97 0 0 1-2.293 6.001.197.197 0 0 1-.274.018l-2.445-2.07a.206.206 0 0 1-.016-.297 5.4 5.4 0 0 0 1.114-1.852H12.2a.2.2 0 0 1-.2-.2v-3.2c0-.11.09-.2.2-.2zm-6.187 6.6a.21.21 0 0 1 .226.024l2.568 2.173a.196.196 0 0 1-.01.309A8.96 8.96 0 0 1 12 21a9 9 0 0 1-7.548-4.097.197.197 0 0 1 .046-.263l2.545-1.962a.207.207 0 0 1 .303.062 5.4 5.4 0 0 0 7.127 2.06M6.68 12.926a.2.2 0 0 1-.076.197L3.869 15.23a.196.196 0 0 1-.304-.084A9 9 0 0 1 3 12c0-1.152.217-2.254.612-3.267a.196.196 0 0 1 .299-.085l2.732 2.004c.065.047.095.13.078.208a5.4 5.4 0 0 0-.042 2.066m.468-3.765c.096.07.231.042.295-.058A5.4 5.4 0 0 1 12 6.6a5.37 5.37 0 0 1 3.44 1.245.205.205 0 0 0 .276-.01l2.266-2.267a.197.197 0 0 0-.007-.286A8.95 8.95 0 0 0 12 3a8.99 8.99 0 0 0-7.484 4 .197.197 0 0 0 .049.267z"/></svg>