<svg xmlns="http://www.w3.org/2000/svg" width="24" height="24" viewBox="0 0 24 24">
    <rect width="100%" height="100%" rx="50%" fill="#FF000F" />
    <path fill-rule="evenodd"
        d="m15.013 2l1.716 1.983s1.507-.426 2.218.299a62 62 0 0 1 1.298 1.364l-.46 1.152l.585 1.705s-1.723 6.65-1.925 7.463c-.398 1.599-.67 2.217-1.8 3.027a152 152 0 0 1-3.742 2.584c-.287.2-.608.423-.903.423s-.617-.224-.904-.423q-.117-.083-.226-.153a152 152 0 0 1-3.516-2.43c-1.13-.811-1.402-1.43-1.8-3.028c-.202-.812-1.925-7.463-1.925-7.463l.586-1.705l-.46-1.152s.585-.64 1.297-1.364c.711-.725 2.218-.299 2.218-.299L8.986 2zM7.751 5.241s-2.207 2.719-2.207 3.3c0 .48.19.668.414.89q.07.069.143.146l1.655 1.79l.054.057c.165.169.409.418.237.832l-.035.084c-.189.449-.42 1.002-.125 1.563c.314.597.853.995 1.199.93c.345-.067 1.156-.498 1.454-.696s1.243-.991 1.243-1.295c0-.253-.68-.675-1.01-.88l-.147-.093l-.162-.104c-.301-.19-.845-.536-.859-.688c-.017-.188-.01-.244.233-.709c.051-.099.112-.205.174-.315c.232-.405.49-.86.433-1.184c-.064-.368-.63-.578-1.107-.757l-.175-.065l-.498-.19v-.001a44 44 0 0 1-1.096-.426c-.12-.057-.09-.11.277-.146l.178-.019c.455-.05 1.292-.14 1.7-.024l.264.073c.457.127 1.018.281 1.072.37l.027.042c.052.075.085.123.028.44l-.094.508c-.127.672-.324 1.724-.349 1.96l-.011.095c-.032.263-.053.438.247.508l.078.018c.338.08.834.195 1.014.195c.179 0 .675-.116 1.013-.195l.078-.018c.3-.07.279-.245.247-.508l-.01-.095c-.026-.236-.223-1.285-.35-1.957l-.094-.51c-.057-.318-.024-.366.028-.44l.027-.043c.054-.089.615-.243 1.072-.37l.265-.073c.407-.116 1.245-.025 1.699.024l.178.019c.367.035.398.09.277.146c-.087.041-.618.244-1.096.426l-.498.19l-.174.066c-.479.179-1.043.39-1.108.757c-.058.325.202.779.433 1.185c.062.109.123.215.175.314c.242.465.249.52.232.709c-.014.153-.558.497-.86.688c-.07.044-.127.08-.16.104l-.148.093c-.33.205-1.01.627-1.01.88c0 .304.945 1.098 1.243 1.295c.298.198 1.11.63 1.455.695c.345.066.884-.332 1.198-.929c.296-.56.064-1.114-.124-1.563l-.036-.084c-.171-.414.072-.663.237-.832l.054-.056l1.655-1.791q.074-.078.144-.146c.223-.222.413-.41.413-.89c0-.581-2.207-3.3-2.207-3.3s-1.863.363-2.114.363c-.2 0-.587-.136-.99-.277l-.307-.107c-.503-.17-.837-.172-.837-.172h.009h-.018H12c-.006 0-.34.003-.838.172q-.152.052-.306.107c-.404.141-.79.277-.99.277c-.252 0-2.115-.363-2.115-.363m5.688 9.78c-.59-.31-1.325-.575-1.44-.575s-.85.265-1.439.576l-.374.196c-.395.207-.674.354-.78.422c-.137.087-.053.251.071.34c.125.09 1.797 1.41 1.96 1.556l.065.06c.156.143.356.326.498.326c.141 0 .34-.183.497-.326l.066-.06a99 99 0 0 1 1.959-1.555c.124-.09.208-.254.071-.341c-.105-.068-.385-.214-.778-.421z"
        clip-rule="evenodd" fill="white" />
</svg>