<svg xmlns="http://www.w3.org/2000/svg" width="42" height="42" viewBox="0 0 24 24">
    <path fill="currentColor" stroke="currentColor" stroke-linecap="round" stroke-linejoin="round"
        d="M6 6.2c0-1.12 0-1.68.218-2.108a2 2 0 0 1 .874-.874C7.52 3 8.08 3 9.2 3h5.6c1.12 0 1.68 0 2.108.218a2 2 0 0 1 .874.874C18 4.52 18 5.08 18 6.2v13.305c0 .486 0 .729-.101.862a.5.5 0 0 1-.37.198c-.167.01-.369-.125-.773-.394L12 17l-4.756 3.17c-.404.27-.606.405-.774.395a.5.5 0 0 1-.369-.198C6 20.234 6 19.991 6 19.505z" />
</svg>