<svg xmlns="http://www.w3.org/2000/svg" width="24" height="24" viewBox="0 0 24 24">
    <path fill="currentColor"
        d="M6.5 20q-2.275 0-3.887-1.575T1 14.575q0-1.95 1.175-3.475T5.25 9.15q.625-2.3 2.5-3.725T12 4q2.925 0 4.963 2.038T19 11q1.725.2 2.863 1.488T23 15.5q0 1.875-1.312 3.188T18.5 20H13q-.825 0-1.412-.587T11 18v-5.15L9.4 14.4L8 13l4-4l4 4l-1.4 1.4l-1.6-1.55V18h5.5q1.05 0 1.775-.725T21 15.5t-.725-1.775T18.5 13H17v-2q0-2.075-1.463-3.538T12 6T8.463 7.463T7 11h-.5q-1.45 0-2.475 1.025T3 14.5t1.025 2.475T6.5 18H9v2zm5.5-7" />
</svg>