<svg xmlns="http://www.w3.org/2000/svg" width="24" height="24" viewBox="0 0 24 24">
    <path fill="currentColor"
        d="m11.558 13.646l-.084.071l-6.927 6.8a3.23 3.23 0 0 0 1.703.481h4.914l.356-1.423c.162-.648.497-1.24.97-1.712l2.11-2.11l-2.075-2.036l-.094-.078a.75.75 0 0 0-.873.007m4.945-5.394a.752.752 0 1 0-1.504 0a.752.752 0 0 0 1.504 0m-.843 6.441l-2.085-2.046l-.128-.117a2.25 2.25 0 0 0-2.888-.006l-.136.123l-6.938 6.81A3.23 3.23 0 0 1 3 17.75V6.25A3.25 3.25 0 0 1 6.25 3h11.499a3.25 3.25 0 0 1 3.25 3.25v4.762a3.28 3.28 0 0 0-2.608.95zM13.5 8.252a2.252 2.252 0 1 0 4.503 0a2.252 2.252 0 0 0-4.504 0m5.598 4.417l-5.901 5.901a2.7 2.7 0 0 0-.707 1.248l-.457 1.83c-.2.797.522 1.518 1.318 1.319l1.83-.458a2.7 2.7 0 0 0 1.248-.706L22.33 15.9a2.286 2.286 0 0 0-3.233-3.232" />
</svg>