<svg width="20" height="20" viewBox="0 0 20 20" fill="none" xmlns="http://www.w3.org/2000/svg">
<path d="M10 0C4.44444 0 0 4.44444 0 10C0 15.5556 4.44444 20 10 20C15.5556 20 20 15.5556 20 10C20 4.44444 15.5556 0 10 0ZM10 7.77778C11.2222 7.77778 12.2222 8.77778 12.2222 10C12.2222 11.2222 11.2222 12.2222 10 12.2222C8.77778 12.2222 7.77778 11.2222 7.77778 10C7.77778 8.77778 8.77778 7.77778 10 7.77778ZM13.1111 5.55556C13.1111 4.77778 13.7778 4.22222 14.4444 4.22222C15.1111 4.22222 15.7778 4.88889 15.7778 5.55556C15.7778 6.22222 15.2222 6.88889 14.4444 6.88889C13.6667 6.88889 13.1111 6.33333 13.1111 5.55556ZM10 17.7778C5.66667 17.7778 2.22222 14.3333 2.22222 10H5.55556C5.55556 12.4444 7.55556 14.4444 10 14.4444C12.4444 14.4444 14.4444 12.4444 14.4444 10H17.7778C17.7778 14.3333 14.3333 17.7778 10 17.7778Z" fill="#617859"/>
</svg>
