<svg width="20" height="20" viewBox="0 0 20 20" fill="none" xmlns="http://www.w3.org/2000/svg">
<path d="M10 0C15.523 0 20 4.477 20 10C20 15.523 15.523 20 10 20C8.23279 20.0029 6.49667 19.5352 4.97001 18.645L0.00401407 20L1.35601 15.032C0.465107 13.5049 -0.00293838 11.768 1.38802e-05 10C1.38802e-05 4.477 4.47701 0 10 0ZM6.59201 5.3L6.39201 5.308C6.26254 5.31589 6.13599 5.3499 6.02001 5.408C5.91153 5.46943 5.81251 5.54622 5.72601 5.636C5.60601 5.749 5.53801 5.847 5.46501 5.942C5.09514 6.4229 4.89599 7.01331 4.89901 7.62C4.90101 8.11 5.02901 8.587 5.22901 9.033C5.63801 9.935 6.31101 10.89 7.19901 11.775C7.41301 11.988 7.62301 12.202 7.84901 12.401C8.9524 13.3725 10.2673 14.073 11.689 14.447L12.257 14.534C12.442 14.544 12.627 14.53 12.813 14.521C13.1043 14.506 13.3886 14.4271 13.646 14.29C13.777 14.2225 13.9048 14.1491 14.029 14.07C14.029 14.07 14.072 14.042 14.154 13.98C14.289 13.88 14.372 13.809 14.484 13.692C14.567 13.606 14.639 13.505 14.694 13.39C14.772 13.227 14.85 12.916 14.882 12.657C14.906 12.459 14.899 12.351 14.896 12.284C14.892 12.177 14.803 12.066 14.706 12.019L14.124 11.758C14.124 11.758 13.254 11.379 12.722 11.137C12.6663 11.1127 12.6067 11.0988 12.546 11.096C12.4776 11.089 12.4085 11.0967 12.3433 11.1186C12.2781 11.1405 12.2183 11.1761 12.168 11.223C12.163 11.221 12.096 11.278 11.373 12.154C11.3315 12.2098 11.2744 12.2519 11.2088 12.2751C11.1433 12.2982 11.0723 12.3013 11.005 12.284C10.9399 12.2665 10.876 12.2445 10.814 12.218C10.69 12.166 10.647 12.146 10.562 12.11C9.98808 11.8595 9.4567 11.5211 8.98701 11.107C8.86101 10.997 8.74401 10.877 8.62401 10.761C8.2306 10.3842 7.88774 9.95801 7.60401 9.493L7.54501 9.398C7.50264 9.33416 7.46837 9.2653 7.44301 9.193C7.40501 9.046 7.50401 8.928 7.50401 8.928C7.50401 8.928 7.74701 8.662 7.86001 8.518C7.97001 8.378 8.06301 8.242 8.12301 8.145C8.24101 7.955 8.27801 7.76 8.21601 7.609C7.93601 6.925 7.64601 6.244 7.34801 5.568C7.28901 5.434 7.11401 5.338 6.95501 5.319C6.90101 5.313 6.84701 5.307 6.79301 5.303C6.65872 5.29633 6.52415 5.29766 6.39001 5.307L6.59101 5.299L6.59201 5.3Z" fill="#617859"/>
</svg>
