<svg fill="none" height="100%" viewBox="0 0 280 280" width="100%" xmlns="http://www.w3.org/2000/svg">
    <path clip-rule="evenodd"
        d="M152 178C152 163.641 163.641 152 178 152H254C268.359 152 280.275 163.76 277.393 177.827C267.155 227.797 227.797 267.155 177.827 277.393C163.76 280.275 152 268.359 152 254V178ZM128 183.26C128 206.423 99.9943 218.024 83.6152 201.645L8.78205 126.811C3.43206 121.461 0.529946 114.017 1.78833 106.556C10.5659 54.5162 50.7487 13.1442 102.17 2.60743C116.237 -0.275091 128 11.6406 128 26V183.26ZM0 214.74C0 191.577 28.0057 179.976 44.3847 196.355L127.994 279.964C127.998 279.968 128 279.974 128 279.979V279.979C128 279.991 127.991 280 127.979 280H26C11.6406 280 0 268.359 0 254V214.74ZM152 26C152 11.6406 163.641 0 178 0H254C268.359 0 280 11.6406 280 26V102C280 116.359 268.359 128 254 128H178C163.641 128 152 116.359 152 102V26Z"
        fill="white" fill-rule="evenodd" />
</svg>