<svg viewBox="0 0 24 24" fill="none" xmlns="http://www.w3.org/2000/svg">
    <path style="transform: scale(0.95); transform-origin: center;" fill-rule="evenodd" clip-rule="evenodd"
        opacity="0.9"
        d="M22 12C22 17.5228 17.5228 22 12 22C6.47715 22 2 17.5228 2 12C2 6.47715 6.47715 2 12 2C17.5228 2 22 6.47715 22 12ZM14.1096 8.41878L15.592 9.90258C16.598 10.9095 17.1009 11.413 16.9836 11.9557C16.8662 12.4985 16.2003 12.7487 14.8684 13.2491L13.9463 13.5955C13.5896 13.7295 13.4113 13.7965 13.2736 13.9157C13.2134 13.9679 13.1594 14.027 13.1129 14.0918C13.0068 14.2397 12.9562 14.4236 12.855 14.7913C12.6249 15.6276 12.5099 16.0457 12.2359 16.202C12.1205 16.2679 11.9898 16.3025 11.8569 16.3023C11.5416 16.3018 11.2352 15.9951 10.6225 15.3818L10.1497 14.9086L8.531 16.5299C8.23835 16.823 7.76348 16.8234 7.47034 16.5308C7.17721 16.2381 7.17683 15.7632 7.46948 15.4701L9.08892 13.848C9.08871 13.8482 9.08914 13.8478 9.08892 13.848L8.64262 13.4C8.03373 12.7905 7.72929 12.4858 7.72731 12.1723C7.72645 12.0368 7.76164 11.9035 7.82926 11.786C7.98568 11.5145 8.40079 11.4 9.23097 11.1711C9.5993 11.0696 9.78346 11.0188 9.9315 10.9123C9.99792 10.8644 10.0583 10.8088 10.1114 10.7465C10.2298 10.6076 10.2956 10.4281 10.4271 10.069L10.7611 9.15753C11.2545 7.81078 11.5013 7.1374 12.0455 7.01734C12.5896 6.89728 13.0963 7.40445 14.1096 8.41878Z"
        fill="#ffffff"></path>
</svg>